<svg xmlns="http://www.w3.org/2000/svg" viewBox="0 0 96 96">
  <rect width="96" height="96" rx="22" fill="#0f172a"/>
  <g transform="translate(0,2)">
    <g fill="#f59e0b">
      <ellipse cx="19" cy="52" rx="9" ry="26" transform="rotate(7 19 52)"/>
      <ellipse cx="77" cy="52" rx="9" ry="26" transform="rotate(-7 77 52)"/>
      <circle cx="48" cy="38" r="22"/>
      <ellipse cx="37" cy="59" rx="8.5" ry="11"/>
      <ellipse cx="59" cy="59" rx="8.5" ry="11"/>
      <ellipse cx="48" cy="56" rx="13" ry="13"/>
    </g>
    <g fill="#0f172a">
      <ellipse cx="39.5" cy="36.5" rx="3.1" ry="2.5"/>
      <ellipse cx="56.5" cy="36.5" rx="3.1" ry="2.5"/>
      <path d="M44 50 h8 a1.8 1.8 0 0 1 1.45 2.9 l-4 5.2 a1.8 1.8 0 0 1 -2.9 0 l-4 -5.2 a1.8 1.8 0 0 1 1.45 -2.9 z"/>
    </g>
  </g>
</svg>
